<svg width="1440" height="1024" viewBox="0 0 1440 1024" fill="none" xmlns="http://www.w3.org/2000/svg">
<g clip-path="url(#clip0_5_22)">
<rect width="1440" height="1024" fill="white"/>
<rect width="1440" height="1024" fill="#D9D9D9"/>
<path d="M0 0H1440V1024H0V0Z" fill="url(#paint0_linear_5_22)"/>
<path d="M-226.175 625.032C-98.3193 1252.23 1440 625.032 1440 625.032V1024H-226.175C-226.175 1024 -354.031 -2.16882 -226.175 625.032Z" fill="white"/>
<circle cx="572" cy="454" r="102" fill="white" fill-opacity="0.2"/>
<circle cx="1153.5" cy="304.5" r="74.5" fill="white" fill-opacity="0.2"/>
<circle cx="975" cy="113" r="50" fill="white" fill-opacity="0.2"/>
<circle cx="226" cy="230" r="102" fill="white" fill-opacity="0.2"/>
<circle cx="55" cy="679" r="102" fill="white" fill-opacity="0.2"/>
<circle cx="1242.5" cy="692.5" r="136.5" fill="white" fill-opacity="0.2"/>
<circle cx="425.5" cy="859.5" r="180.5" fill="white" fill-opacity="0.2"/>
<circle cx="1091.5" cy="751.5" r="136.5" fill="white" fill-opacity="0.2"/>
<circle cx="1227.5" cy="324.5" r="74.5" fill="white" fill-opacity="0.2"/>
<circle cx="1213.5" cy="250.5" r="74.5" fill="white" fill-opacity="0.2"/>
</g>
<defs>
<linearGradient id="paint0_linear_5_22" x1="464.5" y1="99" x2="1384" y2="445" gradientUnits="userSpaceOnUse">
<stop stop-color="#672AB5"/>
<stop offset="1" stop-color="#CD1EEA"/>
</linearGradient>
<clipPath id="clip0_5_22">
<rect width="1440" height="1024" fill="white"/>
</clipPath>
</defs>
</svg>
